<svg xmlns="http://www.w3.org/2000/svg" width="35.968" height="26.973" viewBox="0 0 35.968 26.973">
  <path id="gun" d="M33.717,4.5a4.306,4.306,0,0,1-.667-.07L31.4,6.077a4.364,4.364,0,0,0,2.318.667.466.466,0,0,0,.1-.018l.07-.018,2.072,19.141a1.053,1.053,0,0,1-.246.79.922.922,0,0,1-.738.334H28.343a1.138,1.138,0,0,1-.808-.334,1.186,1.186,0,0,1-.386-.789l-.843-7.867H21.354a5.191,5.191,0,0,1-4.039-1.756,7.2,7.2,0,0,1-1.58-4.987H3.372a1.141,1.141,0,0,1-1.124-1.125V8.991H1.124a1.078,1.078,0,0,1-.79-.334A1.085,1.085,0,0,1,0,7.867v-4.5a1.078,1.078,0,0,1,.334-.79,1.085,1.085,0,0,1,.79-.334H2.248V1.124a1.078,1.078,0,0,1,.334-.79,1.1,1.1,0,0,1,1.58,0,1.082,1.082,0,0,1,.334.79V2.248H29.222a4.364,4.364,0,0,0,.667,2.318l1.967-2a1.055,1.055,0,0,1,1.124-.246,5.107,5.107,0,0,1,.738-.07,3.468,3.468,0,0,1,1.6.334q.65.334.649.79t-.65.79A3.464,3.464,0,0,1,33.717,4.5Zm-8.148,6.743h-.843A5.524,5.524,0,0,1,22.478,15.7V11.239H18.193a3.178,3.178,0,0,0-.211,1.124,3.356,3.356,0,0,0,3.371,3.371h4.706Z" />
</svg>
