<svg xmlns="http://www.w3.org/2000/svg" width="22.279" height="29.5" viewBox="0 0 22.279 29.5">
  <g id="hand-left-outline" transform="translate(-4.5)">
    <path id="Path_60" data-name="Path 60" d="M5.625,19.683V9.692A1.817,1.817,0,0,1,7.442,7.875h0A1.817,1.817,0,0,1,9.258,9.692V16.05" transform="translate(0 -1.3)" fill="none" stroke="#fff" stroke-linecap="round" stroke-linejoin="round" stroke-width="2.25"/>
    <path id="Path_61" data-name="Path 61" d="M10.125,15.183V5.192a1.817,1.817,0,0,1,1.817-1.817h0a1.817,1.817,0,0,1,1.817,1.817v9.083" transform="translate(-0.867 -0.433)" fill="none" stroke="#fff" stroke-linecap="round" stroke-linejoin="round" stroke-width="2.25"/>
    <path id="Path_62" data-name="Path 62" d="M19.125,14.548V6.317A1.817,1.817,0,0,1,20.942,4.5h0a1.817,1.817,0,0,1,1.817,1.817V19.033" transform="translate(-2.6 -0.65)" fill="none" stroke="#fff" stroke-linecap="round" stroke-linejoin="round" stroke-width="2.25"/>
    <path id="Path_63" data-name="Path 63" d="M14.625,13.842V2.942a1.817,1.817,0,0,1,1.817-1.817h0a1.817,1.817,0,0,1,1.817,1.817v10.9" transform="translate(-1.733)" fill="none" stroke="#fff" stroke-linecap="round" stroke-linejoin="round" stroke-width="2.25"/>
    <path id="Path_64" data-name="Path 64" d="M5.625,21.091c0,6.665,3.633,9.992,8.63,9.992s7.023-2.248,8.175-5l2.992-8.175a1.873,1.873,0,0,0-.674-2.476h0a1.817,1.817,0,0,0-2.516.663l-2.073,4.992" transform="translate(0 -2.708)" fill="none" stroke="#fff" stroke-linecap="round" stroke-linejoin="round" stroke-width="2.25"/>
  </g>
</svg>
