<!-- <svg xmlns="http://www.w3.org/2000/svg" width="30" height="18" viewBox="0 0 30 18">
  <g id="bx-mask" transform="translate(-3 -9)">
    <path id="Path_50" data-name="Path 50" d="M28.5,9H7.5A4.505,4.505,0,0,0,3,13.5V21a6.006,6.006,0,0,0,6,6h2.455a5.616,5.616,0,0,0,4.471-2.237,2.665,2.665,0,0,1,4.146,0A5.616,5.616,0,0,0,24.544,27H27a6.006,6.006,0,0,0,6-6V13.5A4.505,4.505,0,0,0,28.5,9ZM30,21a3,3,0,0,1-3,3H24.545a2.615,2.615,0,0,1-2.073-1.035,5.586,5.586,0,0,0-8.942,0A2.612,2.612,0,0,1,11.455,24H9a3,3,0,0,1-3-3V13.5A1.5,1.5,0,0,1,7.5,12h21A1.5,1.5,0,0,1,30,13.5Z" fill="#fff" />
    <path id="Path_51" data-name="Path 51" d="M15,17.25c0,1.243-1.679,2.25-3.75,2.25S7.5,18.493,7.5,17.25,9.179,15,11.25,15,15,16.007,15,17.25Z" fill="#fff" />
    <path id="Path_52" data-name="Path 52" d="M28.5,17.25c0,1.243-1.679,2.25-3.75,2.25S21,18.493,21,17.25,22.679,15,24.75,15s3.75,1.007,3.75,2.25Z" fill="#fff" />
  </g>
</svg> -->
<svg xmlns="http://www.w3.org/2000/svg" width="29.25" height="36" viewBox="0 0 29.25 36">
  <path id="vendetta" d="M28.3,24.75a16.051,16.051,0,0,1-2.707,4.236,24.827,24.827,0,0,1-3.8,3.621,24.011,24.011,0,0,1-3.9,2.444A7.627,7.627,0,0,1,14.731,36a9.186,9.186,0,0,1-4.377-1.582,25.912,25.912,0,0,1-5.238-4.236A22.315,22.315,0,0,1,1.125,24.75Q0,22.5,0,9A7.112,7.112,0,0,1,1.16,4.992a8.421,8.421,0,0,1,3.217-2.83A18.016,18.016,0,0,1,9.053.545,27.963,27.963,0,0,1,14.748,0a27.45,27.45,0,0,1,5.66.545A17.214,17.214,0,0,1,25,2.162a8.236,8.236,0,0,1,3.129,2.83A7.274,7.274,0,0,1,29.25,9Q29.25,22.5,28.3,24.75Zm-13.676,9q.387,0,.65-.738a7.469,7.469,0,0,0,.352-1.9q.089-1.16.1-1.775t.018-1.213a1.125,1.125,0,0,0-2.25,0q0,.6.018,1.213t.1,1.775a7.354,7.354,0,0,0,.352,1.9q.265.738.65.738ZM6.75,6.75a5.693,5.693,0,0,0-3.182.861A2.455,2.455,0,0,0,2.25,9.668a1.958,1.958,0,0,0,.07.387A2.684,2.684,0,0,1,3.814,8.561,6.146,6.146,0,0,1,6.75,7.875a10.627,10.627,0,0,1,2.76.4A8.9,8.9,0,0,1,12.2,9.492a2.452,2.452,0,0,1,1.266,1.758l.018-.053.018-.053a3.164,3.164,0,0,0-1.195-2.426A7.209,7.209,0,0,0,9.617,7.206a9.787,9.787,0,0,0-2.865-.457ZM4.5,12.375q0,.457.984.791a7.49,7.49,0,0,0,2.391.334,7.49,7.49,0,0,0,2.391-.334q.984-.334.984-.791t-.984-.791a7.49,7.49,0,0,0-2.391-.334,7.49,7.49,0,0,0-2.391.334Q4.5,11.918,4.5,12.375ZM14.625,20.25a4.329,4.329,0,0,1-2.057-.475,2.531,2.531,0,0,1-1.213-1.212,1.812,1.812,0,0,0-.1.563,1.737,1.737,0,0,0,.615,1.283,3.518,3.518,0,0,0,1.6.825,5.873,5.873,0,0,1-3.9,1.266,6.482,6.482,0,0,1-3.234-.791,3.3,3.3,0,0,1-1.724-1.986,1.738,1.738,0,0,0-.105.527,2.735,2.735,0,0,0,1.582,2.5,8.264,8.264,0,0,0,4.043.879,9.424,9.424,0,0,0,4.5-.949,9.424,9.424,0,0,0,4.5.949,8.264,8.264,0,0,0,4.043-.879,2.735,2.735,0,0,0,1.582-2.5,1.738,1.738,0,0,0-.1-.527,3.293,3.293,0,0,1-1.723,1.986,6.486,6.486,0,0,1-3.234.791,5.87,5.87,0,0,1-3.9-1.266,3.532,3.532,0,0,0,1.6-.826A1.729,1.729,0,0,0,18,19.125a1.819,1.819,0,0,0-.1-.563,2.53,2.53,0,0,1-1.213,1.213A4.329,4.329,0,0,1,14.625,20.25ZM24.75,12.375q0-.457-.984-.791a7.49,7.49,0,0,0-2.391-.334,7.49,7.49,0,0,0-2.391.334q-.984.334-.984.791t.984.791a7.49,7.49,0,0,0,2.391.334,7.49,7.49,0,0,0,2.391-.334Q24.75,12.832,24.75,12.375ZM22.5,6.75a9.787,9.787,0,0,0-2.865.457,7.218,7.218,0,0,0-2.69,1.512,3.16,3.16,0,0,0-1.195,2.426l.018.053.018.053a2.448,2.448,0,0,1,1.266-1.758A8.915,8.915,0,0,1,19.741,8.28,10.649,10.649,0,0,1,22.5,7.875a6.134,6.134,0,0,1,2.936.686,2.683,2.683,0,0,1,1.494,1.494A1.942,1.942,0,0,0,27,9.668a2.46,2.46,0,0,0-1.318-2.057A5.68,5.68,0,0,0,22.5,6.75Z" />
</svg>
