<svg xmlns="http://www.w3.org/2000/svg" width="34.465" height="35.999" viewBox="0 0 34.465 35.999">
  <path id="friendfeed" d="M25.809,0a11.257,11.257,0,0,0-5.4,1.3,16.746,16.746,0,0,0-7.4-1.162C6.035.784,3.374,4.307,2.965,9.331,1.5,9.5.1,9.886,0,13.77c-.1,4.4,1.28,5.116,2.748,5.6l.106,12.9c.207,1.523-.077,3.22,3.383,3.594l5.179.106c1.9.247,3.211-.958,3.911-3.7.246,2.23,1.226,3.451,3.066,3.489h6.025c1.362-.363,2.856-.484,3.065-2.96l.106-13.424,1.585.1a3.716,3.716,0,0,0,3.489-2.537V12.925c-.262-1.64-.7-1.445-1.162-1.8,1.231-.272,2.5-.4,2.959-3.383l-.1-3.277c.043-2.056-1.1-3.224-3.973-3.985A30.113,30.113,0,0,0,25.809,0Zm-12,3.146a13.7,13.7,0,0,1,4.366.893l.074,3.887A8.19,8.19,0,0,0,15.035,7.1C12.324,6.977,12.07,8.36,11.9,9.794V12.56l6.951.074c.167-3.665-.818-8.338,5.254-9.147a13.4,13.4,0,0,1,6.93.775l-.074,4.111a7.065,7.065,0,0,0-3.588-1.2c-3.748-.527-2.885,2.829-3.065,5.307h5.008v3.663H24.3l.074,16.593-5.531-.15V16.148l-7.175.149v16.3H6.141L6.29,16.3H3.6l-.074-4.11,2.915.15-.074-1.122C6.5,8.536,6.263,3.919,12,3.2c.707.049,1.162-.046,1.807-.053Z" transform="translate(0)" />
</svg>
